<svg xmlns="http://www.w3.org/2000/svg" viewBox="0 0 1920 1080" width="1920" height="1080"><defs><filter id="hfBlur" x="-50%" y="-50%" width="200%" height="200%"><feGaussianBlur stdDeviation="14"/></filter></defs><rect width="1920" height="1080" fill="#FAF7F0"/><rect x="0" y="860" width="1920" height="220" rx="0" fill="#E6E1D6" stroke="none" stroke-width="0" stroke-linejoin="round"/><rect x="2" y="270" width="116" height="590" rx="0" fill="#8EC5E8" stroke="#1A1A1A" stroke-width="4" stroke-linejoin="round"/><rect x="14" y="310" width="92" height="18" rx="3" fill="none" stroke="none" stroke-width="3" stroke-linejoin="round"/><path d="M28 319 L92 319" stroke="#1A1A1A" stroke-width="3" stroke-linecap="round" fill="none"/><circle cx="94" cy="550" r="6" fill="#1A1A1A"/><path d="M2 480 L118 480" stroke="#1A1A1A" stroke-width="3" stroke-linecap="round" fill="none"/><rect x="122" y="270" width="116" height="590" rx="0" fill="#8EC5E8" stroke="#1A1A1A" stroke-width="4" stroke-linejoin="round"/><rect x="134" y="310" width="92" height="18" rx="3" fill="none" stroke="none" stroke-width="3" stroke-linejoin="round"/><path d="M148 319 L212 319" stroke="#1A1A1A" stroke-width="3" stroke-linecap="round" fill="none"/><circle cx="214" cy="550" r="6" fill="#1A1A1A"/><path d="M122 480 L238 480" stroke="#1A1A1A" stroke-width="3" stroke-linecap="round" fill="none"/><rect x="242" y="270" width="116" height="590" rx="0" fill="#8EC5E8" stroke="#1A1A1A" stroke-width="4" stroke-linejoin="round"/><rect x="254" y="310" width="92" height="18" rx="3" fill="none" stroke="none" stroke-width="3" stroke-linejoin="round"/><path d="M268 319 L332 319" stroke="#1A1A1A" stroke-width="3" stroke-linecap="round" fill="none"/><circle cx="334" cy="550" r="6" fill="#1A1A1A"/><path d="M242 480 L358 480" stroke="#1A1A1A" stroke-width="3" stroke-linecap="round" fill="none"/><rect x="362" y="270" width="116" height="590" rx="0" fill="#8EC5E8" stroke="#1A1A1A" stroke-width="4" stroke-linejoin="round"/><rect x="374" y="310" width="92" height="18" rx="3" fill="none" stroke="none" stroke-width="3" stroke-linejoin="round"/><path d="M388 319 L452 319" stroke="#1A1A1A" stroke-width="3" stroke-linecap="round" fill="none"/><circle cx="454" cy="550" r="6" fill="#1A1A1A"/><path d="M362 480 L478 480" stroke="#1A1A1A" stroke-width="3" stroke-linecap="round" fill="none"/><rect x="482" y="270" width="116" height="590" rx="0" fill="#8EC5E8" stroke="#1A1A1A" stroke-width="4" stroke-linejoin="round"/><rect x="494" y="310" width="92" height="18" rx="3" fill="none" stroke="none" stroke-width="3" stroke-linejoin="round"/><path d="M508 319 L572 319" stroke="#1A1A1A" stroke-width="3" stroke-linecap="round" fill="none"/><circle cx="574" cy="550" r="6" fill="#1A1A1A"/><path d="M482 480 L598 480" stroke="#1A1A1A" stroke-width="3" stroke-linecap="round" fill="none"/><rect x="602" y="270" width="116" height="590" rx="0" fill="#8EC5E8" stroke="#1A1A1A" stroke-width="4" stroke-linejoin="round"/><rect x="614" y="310" width="92" height="18" rx="3" fill="none" stroke="none" stroke-width="3" stroke-linejoin="round"/><path d="M628 319 L692 319" stroke="#1A1A1A" stroke-width="3" stroke-linecap="round" fill="none"/><circle cx="694" cy="550" r="6" fill="#1A1A1A"/><path d="M602 480 L718 480" stroke="#1A1A1A" stroke-width="3" stroke-linecap="round" fill="none"/><rect x="722" y="270" width="116" height="590" rx="0" fill="#8EC5E8" stroke="#1A1A1A" stroke-width="4" stroke-linejoin="round"/><rect x="734" y="310" width="92" height="18" rx="3" fill="none" stroke="none" stroke-width="3" stroke-linejoin="round"/><path d="M748 319 L812 319" stroke="#1A1A1A" stroke-width="3" stroke-linecap="round" fill="none"/><circle cx="814" cy="550" r="6" fill="#1A1A1A"/><path d="M722 480 L838 480" stroke="#1A1A1A" stroke-width="3" stroke-linecap="round" fill="none"/><rect x="842" y="270" width="116" height="590" rx="0" fill="#8EC5E8" stroke="#1A1A1A" stroke-width="4" stroke-linejoin="round"/><rect x="854" y="310" width="92" height="18" rx="3" fill="none" stroke="none" stroke-width="3" stroke-linejoin="round"/><path d="M868 319 L932 319" stroke="#1A1A1A" stroke-width="3" stroke-linecap="round" fill="none"/><circle cx="934" cy="550" r="6" fill="#1A1A1A"/><path d="M842 480 L958 480" stroke="#1A1A1A" stroke-width="3" stroke-linecap="round" fill="none"/><rect x="962" y="270" width="116" height="590" rx="0" fill="#8EC5E8" stroke="#1A1A1A" stroke-width="4" stroke-linejoin="round"/><rect x="974" y="310" width="92" height="18" rx="3" fill="none" stroke="none" stroke-width="3" stroke-linejoin="round"/><path d="M988 319 L1052 319" stroke="#1A1A1A" stroke-width="3" stroke-linecap="round" fill="none"/><circle cx="1054" cy="550" r="6" fill="#1A1A1A"/><path d="M962 480 L1078 480" stroke="#1A1A1A" stroke-width="3" stroke-linecap="round" fill="none"/><rect x="1082" y="270" width="116" height="590" rx="0" fill="#8EC5E8" stroke="#1A1A1A" stroke-width="4" stroke-linejoin="round"/><rect x="1094" y="310" width="92" height="18" rx="3" fill="none" stroke="none" stroke-width="3" stroke-linejoin="round"/><path d="M1108 319 L1172 319" stroke="#1A1A1A" stroke-width="3" stroke-linecap="round" fill="none"/><circle cx="1174" cy="550" r="6" fill="#1A1A1A"/><path d="M1082 480 L1198 480" stroke="#1A1A1A" stroke-width="3" stroke-linecap="round" fill="none"/><rect x="1202" y="270" width="116" height="590" rx="0" fill="#8EC5E8" stroke="#1A1A1A" stroke-width="4" stroke-linejoin="round"/><rect x="1214" y="310" width="92" height="18" rx="3" fill="none" stroke="none" stroke-width="3" stroke-linejoin="round"/><path d="M1228 319 L1292 319" stroke="#1A1A1A" stroke-width="3" stroke-linecap="round" fill="none"/><circle cx="1294" cy="550" r="6" fill="#1A1A1A"/><path d="M1202 480 L1318 480" stroke="#1A1A1A" stroke-width="3" stroke-linecap="round" fill="none"/><rect x="1322" y="270" width="116" height="590" rx="0" fill="#8EC5E8" stroke="#1A1A1A" stroke-width="4" stroke-linejoin="round"/><rect x="1334" y="310" width="92" height="18" rx="3" fill="none" stroke="none" stroke-width="3" stroke-linejoin="round"/><path d="M1348 319 L1412 319" stroke="#1A1A1A" stroke-width="3" stroke-linecap="round" fill="none"/><circle cx="1414" cy="550" r="6" fill="#1A1A1A"/><path d="M1322 480 L1438 480" stroke="#1A1A1A" stroke-width="3" stroke-linecap="round" fill="none"/><rect x="1442" y="270" width="116" height="590" rx="0" fill="#8EC5E8" stroke="#1A1A1A" stroke-width="4" stroke-linejoin="round"/><rect x="1454" y="310" width="92" height="18" rx="3" fill="none" stroke="none" stroke-width="3" stroke-linejoin="round"/><path d="M1468 319 L1532 319" stroke="#1A1A1A" stroke-width="3" stroke-linecap="round" fill="none"/><circle cx="1534" cy="550" r="6" fill="#1A1A1A"/><path d="M1442 480 L1558 480" stroke="#1A1A1A" stroke-width="3" stroke-linecap="round" fill="none"/><rect x="1562" y="270" width="116" height="590" rx="0" fill="#8EC5E8" stroke="#1A1A1A" stroke-width="4" stroke-linejoin="round"/><rect x="1574" y="310" width="92" height="18" rx="3" fill="none" stroke="none" stroke-width="3" stroke-linejoin="round"/><path d="M1588 319 L1652 319" stroke="#1A1A1A" stroke-width="3" stroke-linecap="round" fill="none"/><circle cx="1654" cy="550" r="6" fill="#1A1A1A"/><path d="M1562 480 L1678 480" stroke="#1A1A1A" stroke-width="3" stroke-linecap="round" fill="none"/><rect x="1682" y="270" width="116" height="590" rx="0" fill="#8EC5E8" stroke="#1A1A1A" stroke-width="4" stroke-linejoin="round"/><rect x="1694" y="310" width="92" height="18" rx="3" fill="none" stroke="none" stroke-width="3" stroke-linejoin="round"/><path d="M1708 319 L1772 319" stroke="#1A1A1A" stroke-width="3" stroke-linecap="round" fill="none"/><circle cx="1774" cy="550" r="6" fill="#1A1A1A"/><path d="M1682 480 L1798 480" stroke="#1A1A1A" stroke-width="3" stroke-linecap="round" fill="none"/><rect x="1802" y="270" width="116" height="590" rx="0" fill="#8EC5E8" stroke="#1A1A1A" stroke-width="4" stroke-linejoin="round"/><rect x="1814" y="310" width="92" height="18" rx="3" fill="none" stroke="none" stroke-width="3" stroke-linejoin="round"/><path d="M1828 319 L1892 319" stroke="#1A1A1A" stroke-width="3" stroke-linecap="round" fill="none"/><circle cx="1894" cy="550" r="6" fill="#1A1A1A"/><path d="M1802 480 L1918 480" stroke="#1A1A1A" stroke-width="3" stroke-linecap="round" fill="none"/><path d="M0 860 L1920 860" stroke="#1A1A1A" stroke-width="5" stroke-linecap="round" fill="none"/><g transform="translate(330 950) scale(0.95 0.95)"><g><ellipse cx="0" cy="2" rx="84" ry="11" fill="#E6E1D6"/><path d="M-14 -196 L-10.28 -103.07 L-19.98 -13.6" fill="none" stroke="#1A1A1A" stroke-width="5" stroke-linecap="round" stroke-linejoin="round"/><path d="M14 -196 L23.79 -103.52 L19.98 -13.6" fill="none" stroke="#1A1A1A" stroke-width="5" stroke-linecap="round" stroke-linejoin="round"/><ellipse cx="-28" cy="-8" rx="17" ry="8" fill="#1A1A1A"/><ellipse cx="28" cy="-8" rx="17" ry="8" fill="#1A1A1A"/><g transform="translate(0 -196) rotate(0)"><path d="M-37 4 L-40 -92 Q-40 -118 -22 -122 L22 -122 Q40 -118 40 -92 L37 4 Q0 8 -37 4Z" fill="#8EC5E8" stroke="#1A1A1A" stroke-width="5" stroke-linejoin="round"/></g><path d="M-38 -309 L-69.52 -230.06 L-52 -152" fill="none" stroke="#1A1A1A" stroke-width="5" stroke-linecap="round" stroke-linejoin="round"/><path d="M38 -309 L69.52 -230.06 L52 -152" fill="none" stroke="#1A1A1A" stroke-width="5" stroke-linecap="round" stroke-linejoin="round"/><circle cx="-52" cy="-152" r="7.5" fill="#1A1A1A" stroke="#1A1A1A" stroke-width="1"/><circle cx="52" cy="-152" r="7.5" fill="#1A1A1A" stroke="#1A1A1A" stroke-width="1"/><g transform="translate(0 -373) rotate(0)"><circle r="52" fill="#fff" stroke="#1A1A1A" stroke-width="5"/><path d="M-51 -6 Q-56 -60 0 -58 Q56 -60 51 -6 Q40 -34 4 -35 Q-30 -36 -51 -6Z" fill="#1A1A1A" stroke="#1A1A1A" stroke-width="3" stroke-linejoin="round"/><ellipse cx="-17" cy="-4" rx="5.5" ry="9" fill="#1A1A1A"/><circle cx="-15.2" cy="-7" r="2" fill="#fff"/><ellipse cx="17" cy="-4" rx="5.5" ry="9" fill="#1A1A1A"/><circle cx="18.8" cy="-7" r="2" fill="#fff"/><path d="M-9 24 Q0 29 9 24" fill="none" stroke="#1A1A1A" stroke-width="4.5" stroke-linecap="round" stroke-linejoin="round"/></g></g></g><g transform="translate(1500 950) scale(0.95 0.95)"><g><ellipse cx="0" cy="2" rx="84" ry="11" fill="#E6E1D6"/><path d="M-14 -196 L-10.28 -103.07 L-19.98 -13.6" fill="none" stroke="#1A1A1A" stroke-width="5" stroke-linecap="round" stroke-linejoin="round"/><path d="M14 -196 L23.79 -103.52 L19.98 -13.6" fill="none" stroke="#1A1A1A" stroke-width="5" stroke-linecap="round" stroke-linejoin="round"/><ellipse cx="-28" cy="-8" rx="17" ry="8" fill="#1A1A1A"/><ellipse cx="28" cy="-8" rx="17" ry="8" fill="#1A1A1A"/><g transform="translate(0 -196) rotate(0)"><path d="M-37 4 L-40 -92 Q-40 -118 -22 -122 L22 -122 Q40 -118 40 -92 L37 4 Q0 8 -37 4Z" fill="#D9805F" stroke="#1A1A1A" stroke-width="5" stroke-linejoin="round"/></g><path d="M-38 -309 L-69.52 -230.06 L-52 -152" fill="none" stroke="#1A1A1A" stroke-width="5" stroke-linecap="round" stroke-linejoin="round"/><path d="M38 -309 L69.52 -230.06 L52 -152" fill="none" stroke="#1A1A1A" stroke-width="5" stroke-linecap="round" stroke-linejoin="round"/><circle cx="-52" cy="-152" r="7.5" fill="#1A1A1A" stroke="#1A1A1A" stroke-width="1"/><circle cx="52" cy="-152" r="7.5" fill="#1A1A1A" stroke="#1A1A1A" stroke-width="1"/><g transform="translate(0 -373) rotate(0)"><path d="M-52 -10 Q-62 50 -44 66 L-30 40 L30 40 L44 66 Q62 50 52 -10Z" fill="#1A1A1A" stroke="#1A1A1A" stroke-width="3" stroke-linejoin="round"/><circle r="52" fill="#fff" stroke="#1A1A1A" stroke-width="5"/><path d="M-51 -4 Q-52 -60 0 -58 Q52 -60 51 -4 Q30 -30 6 -34 Q-24 -30 -51 -4Z" fill="#1A1A1A" stroke="#1A1A1A" stroke-width="3" stroke-linejoin="round"/><ellipse cx="-17" cy="-4" rx="5.5" ry="9" fill="#1A1A1A"/><circle cx="-15.2" cy="-7" r="2" fill="#fff"/><ellipse cx="17" cy="-4" rx="5.5" ry="9" fill="#1A1A1A"/><circle cx="18.8" cy="-7" r="2" fill="#fff"/><path d="M-9 24 Q0 29 9 24" fill="none" stroke="#1A1A1A" stroke-width="4.5" stroke-linecap="round" stroke-linejoin="round"/></g></g></g><g transform="translate(1740 940) scale(0.9 0.9)"><g><ellipse cx="0" cy="2" rx="84" ry="11" fill="#E6E1D6"/><path d="M-14 -196 L-10.28 -103.07 L-19.98 -13.6" fill="none" stroke="#1A1A1A" stroke-width="5" stroke-linecap="round" stroke-linejoin="round"/><path d="M14 -196 L23.79 -103.52 L19.98 -13.6" fill="none" stroke="#1A1A1A" stroke-width="5" stroke-linecap="round" stroke-linejoin="round"/><ellipse cx="-28" cy="-8" rx="17" ry="8" fill="#1A1A1A"/><ellipse cx="28" cy="-8" rx="17" ry="8" fill="#1A1A1A"/><g transform="translate(0 -196) rotate(0)"><path d="M-37 4 L-40 -92 Q-40 -118 -22 -122 L22 -122 Q40 -118 40 -92 L37 4 Q0 8 -37 4Z" fill="#9CC08B" stroke="#1A1A1A" stroke-width="5" stroke-linejoin="round"/></g><path d="M-38 -309 L-69.52 -230.06 L-52 -152" fill="none" stroke="#1A1A1A" stroke-width="5" stroke-linecap="round" stroke-linejoin="round"/><path d="M38 -309 L69.52 -230.06 L52 -152" fill="none" stroke="#1A1A1A" stroke-width="5" stroke-linecap="round" stroke-linejoin="round"/><circle cx="-52" cy="-152" r="7.5" fill="#1A1A1A" stroke="#1A1A1A" stroke-width="1"/><circle cx="52" cy="-152" r="7.5" fill="#1A1A1A" stroke="#1A1A1A" stroke-width="1"/><g transform="translate(0 -373) rotate(0)"><circle r="52" fill="#fff" stroke="#1A1A1A" stroke-width="5"/><path d="M-50 -8 Q-54 -58 0 -57 Q54 -58 50 -4 Q44 -26 20 -40 Q-14 -28 -50 -8Z" fill="#1A1A1A" stroke="#1A1A1A" stroke-width="3" stroke-linejoin="round"/><ellipse cx="-17" cy="-4" rx="5.5" ry="9" fill="#1A1A1A"/><circle cx="-15.2" cy="-7" r="2" fill="#fff"/><ellipse cx="17" cy="-4" rx="5.5" ry="9" fill="#1A1A1A"/><circle cx="18.8" cy="-7" r="2" fill="#fff"/><path d="M-9 24 Q0 29 9 24" fill="none" stroke="#1A1A1A" stroke-width="4.5" stroke-linecap="round" stroke-linejoin="round"/></g></g></g><g transform="translate(960 960) scale(1.2 1.2)"><g><ellipse cx="11" cy="2" rx="96" ry="11" fill="#E6E1D6"/><path d="M6 -196 L-26.23 -108.76 L-69.52 -29.86" fill="none" stroke="#1A1A1A" stroke-width="25" stroke-linecap="round" stroke-linejoin="round"/><path d="M6 -196 L-26.23 -108.76 L-69.52 -29.86" fill="none" stroke="#2B2B2B" stroke-width="17" stroke-linecap="round" stroke-linejoin="round"/><path d="M38 -196 L54.8 -104.53 L57.83 -14.58" fill="none" stroke="#1A1A1A" stroke-width="25" stroke-linecap="round" stroke-linejoin="round"/><path d="M38 -196 L54.8 -104.53 L57.83 -14.58" fill="none" stroke="#2B2B2B" stroke-width="17" stroke-linecap="round" stroke-linejoin="round"/><g><rect x="-87" y="-22" width="42" height="15" rx="7.5" fill="#fff" stroke="#1A1A1A" stroke-width="3.2"/><path d="M-82 -10.5 L-50 -10.5" stroke="#D64545" stroke-width="2.6" stroke-linecap="round"/></g><g><rect x="45" y="-15" width="42" height="15" rx="7.5" fill="#fff" stroke="#1A1A1A" stroke-width="3.2"/><path d="M50 -3.5 L82 -3.5" stroke="#D64545" stroke-width="2.6" stroke-linecap="round"/></g><path d="M54.35 -316.74 L70.4 -340.63" stroke="#1A1A1A" stroke-width="25" stroke-linecap="round" fill="none"/><path d="M54.35 -316.74 L70.4 -340.63" stroke="#2B2B2B" stroke-width="17" stroke-linecap="round" fill="none"/><g transform="translate(22 -196) rotate(15)"><path d="M-30 -118 Q-32 -142 -4 -136 L4 -136 Q32 -142 30 -118 Z" fill="#2B2B2B" stroke="#1A1A1A" stroke-width="4" stroke-linejoin="round"/></g><g transform="translate(22 -196) rotate(15)"><path d="M-43 2 L-47 -92 Q-48 -116 -28 -122 L28 -122 Q48 -116 47 -92 L43 2 Q0 8 -43 2Z" fill="#2B2B2B" stroke="#1A1A1A" stroke-width="4" stroke-linejoin="round"/><path d="M-43 -12 Q0 -6 43 -12" stroke="#1A1A1A" stroke-width="3" fill="none"/><path d="M-25 -44 Q0 -36 25 -44 L28 -16 Q0 -10 -28 -16Z" fill="none" stroke="#1A1A1A" stroke-width="3" stroke-linejoin="round"/><path d="M-9 -120 L-11 -80 M9 -120 L11 -80" stroke="#1A1A1A" stroke-width="3.2" stroke-linecap="round"/><path d="M-26 -122 Q0 -108 26 -122" stroke="#1A1A1A" stroke-width="3" fill="none"/></g><path d="M8.75 -316.54 L-68.21 -280.45 L-104 -352" fill="none" stroke="#1A1A1A" stroke-width="21" stroke-linecap="round" stroke-linejoin="round"/><path d="M8.75 -316.54 L-68.21 -280.45 L-104 -352" fill="none" stroke="#2B2B2B" stroke-width="13" stroke-linecap="round" stroke-linejoin="round"/><path d="M93.75 -293.76 L128.07 -216 L128 -296" fill="none" stroke="#1A1A1A" stroke-width="21" stroke-linecap="round" stroke-linejoin="round"/><path d="M93.75 -293.76 L128.07 -216 L128 -296" fill="none" stroke="#2B2B2B" stroke-width="13" stroke-linecap="round" stroke-linejoin="round"/><circle cx="-104" cy="-352" r="10.5" fill="#2B2B2B" stroke="#1A1A1A" stroke-width="3"/><circle cx="128" cy="-296" r="10.5" fill="#2B2B2B" stroke="#1A1A1A" stroke-width="3"/><g transform="translate(70.4 -376.63) rotate(23)"><g>
    <ellipse cx="0" cy="0" rx="92" ry="80" fill="#F7C4AE" opacity="0.35" filter="url(#hfBlur)"/>
    <ellipse cx="-30" cy="-6" rx="38" ry="40" fill="#F7C4AE" stroke="#1A1A1A" stroke-width="9"/><ellipse cx="30" cy="-6" rx="38" ry="40" fill="#F7C4AE" stroke="#1A1A1A" stroke-width="9"/><ellipse cx="-17" cy="-26" rx="34" ry="26" fill="#F7C4AE" stroke="#1A1A1A" stroke-width="9"/><ellipse cx="17" cy="-26" rx="34" ry="26" fill="#F7C4AE" stroke="#1A1A1A" stroke-width="9"/><ellipse cx="0" cy="20" rx="44" ry="26" fill="#F7C4AE" stroke="#1A1A1A" stroke-width="9"/><ellipse cx="-50" cy="12" rx="20" ry="24" fill="#F7C4AE" stroke="#1A1A1A" stroke-width="9"/><ellipse cx="50" cy="12" rx="20" ry="24" fill="#F7C4AE" stroke="#1A1A1A" stroke-width="9"/>
    <ellipse cx="-30" cy="-6" rx="38" ry="40" fill="#F7C4AE"/><ellipse cx="30" cy="-6" rx="38" ry="40" fill="#F7C4AE"/><ellipse cx="-17" cy="-26" rx="34" ry="26" fill="#F7C4AE"/><ellipse cx="17" cy="-26" rx="34" ry="26" fill="#F7C4AE"/><ellipse cx="0" cy="20" rx="44" ry="26" fill="#F7C4AE"/><ellipse cx="-50" cy="12" rx="20" ry="24" fill="#F7C4AE"/><ellipse cx="50" cy="12" rx="20" ry="24" fill="#F7C4AE"/>
    <path d="M0 -48 Q-5 -14 0 42" stroke="#E39A82" stroke-width="3" fill="none" stroke-linecap="round"/>
    <path d="M-52 -8 Q-38 -22 -24 -10 M-46 18 Q-34 8 -22 18 M-30 -32 Q-20 -40 -8 -30 M-58 14 Q-54 6 -48 8 M-10 14 Q-18 24 -12 34" stroke="#E39A82" stroke-width="2.8" fill="none" stroke-linecap="round"/>
    <path d="M52 -8 Q38 -22 24 -10 M46 18 Q34 8 22 18 M30 -32 Q20 -40 8 -30 M58 14 Q54 6 48 8 M10 14 Q18 24 12 34" stroke="#E39A82" stroke-width="2.8" fill="none" stroke-linecap="round"/>
    <ellipse cx="-22" cy="9" rx="8" ry="4.5" fill="#fff" stroke="#E39A82" stroke-width="2"/><ellipse cx="22" cy="9" rx="8" ry="4.5" fill="#fff" stroke="#E39A82" stroke-width="2"/><path d="M-35 -6 L-13 -20" stroke="#C97B63" stroke-width="4.5" stroke-linecap="round"/><path d="M35 -6 L13 -20" stroke="#C97B63" stroke-width="4.5" stroke-linecap="round"/>
  </g></g></g></g></svg>