<svg xmlns="http://www.w3.org/2000/svg" viewBox="-330 -490 660 520"><defs><filter id="hfBlur" x="-50%" y="-50%" width="200%" height="200%"><feGaussianBlur stdDeviation="14"/></filter></defs><g><ellipse cx="0" cy="2" rx="84" ry="11" fill="#E6E1D6"/><path d="M-14 -196 L-10.28 -103.07 L-19.98 -13.6" fill="none" stroke="#1A1A1A" stroke-width="5" stroke-linecap="round" stroke-linejoin="round"/><path d="M14 -196 L23.79 -103.52 L19.98 -13.6" fill="none" stroke="#1A1A1A" stroke-width="5" stroke-linecap="round" stroke-linejoin="round"/><ellipse cx="-28" cy="-8" rx="17" ry="8" fill="#1A1A1A"/><ellipse cx="28" cy="-8" rx="17" ry="8" fill="#1A1A1A"/><g transform="translate(0 -196) rotate(3)"><path d="M-37 4 L-40 -92 Q-40 -118 -22 -122 L22 -122 Q40 -118 40 -92 L37 4 Q0 8 -37 4Z" fill="#9CC08B" stroke="#1A1A1A" stroke-width="5" stroke-linejoin="round"/></g><path d="M-32.03 -310.83 L-62.16 -231.35 L-52 -152" fill="none" stroke="#1A1A1A" stroke-width="5" stroke-linecap="round" stroke-linejoin="round"/><path d="M43.86 -306.86 L94.58 -375.06 L20 -404" fill="none" stroke="#1A1A1A" stroke-width="5" stroke-linecap="round" stroke-linejoin="round"/><circle cx="-52" cy="-152" r="7.5" fill="#1A1A1A" stroke="#1A1A1A" stroke-width="1"/><circle cx="20" cy="-404" r="7.5" fill="#1A1A1A" stroke="#1A1A1A" stroke-width="1"/><g transform="translate(9.26 -372.76) rotate(-3)"><circle r="52" fill="#fff" stroke="#1A1A1A" stroke-width="5"/><ellipse cx="-17" cy="-4" rx="5.5" ry="9" fill="#1A1A1A"/><circle cx="-15.2" cy="-7" r="2" fill="#fff"/><ellipse cx="17" cy="-4" rx="5.5" ry="9" fill="#1A1A1A"/><circle cx="18.8" cy="-7" r="2" fill="#fff"/><path d="M-9 24 Q0 29 9 24" fill="none" stroke="#1A1A1A" stroke-width="4.5" stroke-linecap="round" stroke-linejoin="round"/></g></g></svg>